<svg id="Layer_1" data-name="Layer 1" xmlns="http://www.w3.org/2000/svg" viewBox="0 0 1063.61 207.81"><defs><style>.cls-1{fill:#ffbc00;}</style></defs><title>Confrere_logo</title><path class="cls-1" d="M1058.45,175.06a17.25,17.25,0,1,0,5.16,12.31A16.8,16.8,0,0,0,1058.45,175.06Z"/><path d="M419.41,86a39.16,39.16,0,0,0-14.55-8.6,54.47,54.47,0,0,0-17.33-2.78,52,52,0,0,0-25.67,6.73,39.73,39.73,0,0,0-15.61,16.78h-1.43v-21h-22v127h22V138.67a58.85,58.85,0,0,1,3.1-18.79,35.88,35.88,0,0,1,7.63-13.1,29.05,29.05,0,0,1,11.23-7.54,39.2,39.2,0,0,1,13.82-2.38,33.84,33.84,0,0,1,10.75,1.72,23.93,23.93,0,0,1,9.14,5.56,27.87,27.87,0,0,1,6.65,10.06,41.52,41.52,0,0,1,2.68,15v75h24V122.53A57,57,0,0,0,429.72,101,42.26,42.26,0,0,0,419.41,86Z"/><path d="M531.06,0.26C528.15,0.09,524.59,0,521.94,0c-15.71,0-26.41,4.1-32.85,12.31S479.81,33,479.81,49.75V77.14h-27v23h27v104h23v-104h31v-23h-31V49a96.45,96.45,0,0,1,.45-11.78,22.3,22.3,0,0,1,2.8-8.87,14.79,14.79,0,0,1,6.17-5.69c2.65-1.32,6.15-2,10.56-2a63.86,63.86,0,0,1,8.42.53,15,15,0,0,0,2.6.21v-21C531.81,0.34,531.45.29,531.06,0.26Z"/><path d="M607.44,76.35A47,47,0,0,0,596.72,81a45.08,45.08,0,0,0-8.86,7.52,28.37,28.37,0,0,0-6.35,9.64h-0.7v-21h-22v127h22V140.26c0-13.76,3.17-23.9,9.35-30.43S605.28,100,616.92,100a33,33,0,0,1,5.84.53c1.94,0.36,3.89.79,5.83,1.32l1.06-25.67a33.35,33.35,0,0,0-10.58-1.59A40.93,40.93,0,0,0,607.44,76.35Z"/><path d="M754.85,95.67a55.79,55.79,0,0,0-18.92-15.22q-11.51-5.82-28.18-5.82a66,66,0,0,0-25.93,5,61.58,61.58,0,0,0-20.51,13.89,64.64,64.64,0,0,0-13.5,20.91,68.52,68.52,0,0,0-4.9,26.07,73.83,73.83,0,0,0,4.5,26.07,61.56,61.56,0,0,0,12.83,20.91,58.39,58.39,0,0,0,20.38,13.89,69.11,69.11,0,0,0,26.86,5q35.73,0,55.57-25.67l-18-13.76A62.25,62.25,0,0,1,730,180.62a35.51,35.51,0,0,1-19.32,5.16,48.28,48.28,0,0,1-15.88-2.65,43.31,43.31,0,0,1-13.5-7.41,35.48,35.48,0,0,1-9.39-11.07,28.3,28.3,0,0,1-3.57-14.51h101.5v-9.35a88.76,88.76,0,0,0-3.78-24A61.24,61.24,0,0,0,754.85,95.67Zm-86.54,33.47a40.17,40.17,0,0,1,2.78-12.3,39,39,0,0,1,36.12-23.22A41.13,41.13,0,0,1,723,96.43a31.15,31.15,0,0,1,11.25,7.69,30,30,0,0,1,6.75,11,55.49,55.49,0,0,1,2.51,14H668.31Z"/><path d="M847.73,76.35A47.06,47.06,0,0,0,837,81a45.14,45.14,0,0,0-8.87,7.52,28.39,28.39,0,0,0-6.35,9.64h0v-21h-25v127h25V140.26c0-13.76,2.82-23.9,9-30.43S845.75,100,857.4,100a32,32,0,0,1,5.75.53c1.94,0.36,3.84.79,5.79,1.32l1-25.67a33.41,33.41,0,0,0-10.59-1.59A41,41,0,0,0,847.73,76.35Z"/><path d="M994.1,95.67a55.75,55.75,0,0,0-18.92-15.22Q963.67,74.63,947,74.63a66,66,0,0,0-25.94,5,61.58,61.58,0,0,0-20.51,13.89,64.61,64.61,0,0,0-13.5,20.91,68.49,68.49,0,0,0-4.9,26.07,73.83,73.83,0,0,0,4.5,26.07,61.57,61.57,0,0,0,12.83,20.91,58.37,58.37,0,0,0,20.38,13.89,69.1,69.1,0,0,0,26.86,5q35.72,0,55.57-25.67l-18-13.76a62.29,62.29,0,0,1-15.08,13.63,35.52,35.52,0,0,1-19.32,5.16A48.29,48.29,0,0,1,934,183.13a43.31,43.31,0,0,1-13.5-7.41,35.51,35.51,0,0,1-9.4-11.07,28.31,28.31,0,0,1-3.57-14.51h102.24v-9.35c0-8.11-1.94-16.1-4.15-24S999,101.93,994.1,95.67Zm-86.54,33.47a40.13,40.13,0,0,1,2.78-12.3,39,39,0,0,1,36.12-23.22,41.13,41.13,0,0,1,15.75,2.81,31.16,31.16,0,0,1,11.25,7.69,30,30,0,0,1,6.75,11,55.46,55.46,0,0,1,2.51,14H907.56Z"/><path d="M281.64,93.75a68.18,68.18,0,0,0-73.57-14.16c-16.93,7.18-28.49,21.27-37.43,37-8,14.13-14.13,28.66-23.17,42.22-5.65,7.94-14.18,14.12-22.3,18.53S107.62,184,96.86,184q-16.41,0-29.37-5.82a64.38,64.38,0,0,1-22-15.88A70.12,70.12,0,0,1,31.76,139,82.14,82.14,0,0,1,27,111a86.79,86.79,0,0,1,5-29.77A74.2,74.2,0,0,1,46.18,57a66.09,66.09,0,0,1,22-16.28,67.42,67.42,0,0,1,28.71-6A59.91,59.91,0,0,1,122,40.29a52.38,52.38,0,0,1,20.11,15.88L163.29,40a68,68,0,0,0-29.24-22,97.22,97.22,0,0,0-36.39-7.15A103.32,103.32,0,0,0,58,18.33,89.31,89.31,0,0,0,27.13,39.1a94.86,94.86,0,0,0-20,31.76A109.81,109.81,0,0,0,0,111a97.36,97.36,0,0,0,56.24,88.39q17.87,8.47,40.09,8.47,16.14,0,28.45-4.1a99.37,99.37,0,0,0,21-9.53,74.44,74.44,0,0,0,14-10.85c9.87-10.11,13.19-19,19.38-31.55,4.63-9.39,9.15-19.09,14.47-28.12,2.46-4.18,8.17-12.55,11.65-15.94A38.72,38.72,0,0,1,217.09,100a46.34,46.34,0,0,1,34.39,0,38,38,0,0,1,13,9,39.8,39.8,0,0,1,8.2,13.76,54.67,54.67,0,0,1,0,35.2,39.71,39.71,0,0,1-8.21,13.76,38,38,0,0,1-13,9,46.37,46.37,0,0,1-34.4,0,38,38,0,0,1-12.75-8.79L185.95,186c0.32,0.33.63,0.67,1,1a67.81,67.81,0,0,0,94.74,0A65.21,65.21,0,0,0,301,140.33a63.86,63.86,0,0,0-5.16-25.67A67,67,0,0,0,281.64,93.75Z"/></svg>